# xmcd
#
# Track frame offsets:
#	150
#	9930
#	22762
#	41680
#	58558
#	73420
#	87199
#	102055
#	115949
#	126972
#	146296
#	156489
#	173838
#	193723
#	204891
#	216762
#	229324
#
# Disc length: 3273 seconds
#
# Revision: 1
# Processed by: cddbd v1.5.2PL0 Copyright (c) Steve Scherf et al.
# Submitted via: audiograbber 1.83.01
#
DISCID=e50cc711
DTITLE=Various Artist - Pure... Country CD3
DYEAR=2010
DGENRE=Country
TTITLE0=Waylon Jennings - Theme From The Dukes Of Hazzard (Good Ol' Boys)
TTITLE1=Exile - Give Me One More Chance
TTITLE2=Kenny Rogers and Dolly Parton - Islands In The Stream
TTITLE3=Alabama - Take Me Down
TTITLE4=Ronnie Milsap - (There's) No Gettin' Over Me
TTITLE5=Merle Haggard - That's The Way Love Goes
TTITLE6=Rosanne Cash - Seven Year Ache
TTITLE7=Mac Davis - Baby Don't Get Hooked On Me
TTITLE8=Tanya Tucker - Would You Lay With Me (In A Field Of Stone)
TTITLE9=Dan Fogelberg - Run For The Roses
TTITLE10=Georhe Hamilton IV - Abilene
TTITLE11=Ray Price - For The Good Times
TTITLE12=Marty Robbins - El Paso
TTITLE13='Little' Jimmy Dickens - May The Bird Of Paradise Fly Up Your Nose
TTITLE14=Roy Rogers and The Sons Of The Pioneers - Stampede
TTITLE15=Hank Snow - I've Been Everywhere
TTITLE16=Charlie Daniels - The Devil Went Down To Georgia
EXTD=
EXTT0=
EXTT1=
EXTT2=
EXTT3=
EXTT4=
EXTT5=
EXTT6=
EXTT7=
EXTT8=
EXTT9=
EXTT10=
EXTT11=
EXTT12=
EXTT13=
EXTT14=
EXTT15=
EXTT16=
PLAYORDER=
